<svg xmlns="http://www.w3.org/2000/svg" viewBox="0 0 800 500" preserveAspectRatio="xMidYMid slice">
  <defs>
    <linearGradient id="bg3" x1="0" y1="0" x2="1" y2="1">
      <stop offset="0%" stop-color="#001b44"/>
      <stop offset="100%" stop-color="#0046aa"/>
    </linearGradient>
  </defs>
  <rect width="800" height="500" fill="url(#bg3)"/>
  <g opacity=".18" stroke="#fff">
    <path d="M0 100 H800 M0 200 H800 M0 300 H800 M0 400 H800" stroke-width="1"/>
    <path d="M100 0 V500 M200 0 V500 M300 0 V500 M400 0 V500 M500 0 V500 M600 0 V500 M700 0 V500" stroke-width="1"/>
  </g>
  <!-- Big chiller unit -->
  <rect x="120" y="180" width="320" height="200" rx="14" fill="#102b56" stroke="#3a6dbf"/>
  <rect x="140" y="200" width="280" height="40" rx="6" fill="#0a1f44"/>
  <text x="160" y="226" font-family="Manrope,Arial" font-size="20" font-weight="700" fill="#7fb6ff">DAIKIN VRV / Chiller</text>
  <g fill="#3a6dbf">
    <rect x="140" y="260" width="60" height="100" rx="4"/>
    <rect x="210" y="260" width="60" height="100" rx="4"/>
    <rect x="280" y="260" width="60" height="100" rx="4"/>
    <rect x="350" y="260" width="60" height="100" rx="4"/>
  </g>
  <circle cx="170" cy="310" r="22" fill="#0a1f44" stroke="#7fb6ff"/>
  <circle cx="240" cy="310" r="22" fill="#0a1f44" stroke="#7fb6ff"/>
  <circle cx="310" cy="310" r="22" fill="#0a1f44" stroke="#7fb6ff"/>
  <circle cx="380" cy="310" r="22" fill="#0a1f44" stroke="#7fb6ff"/>
  <!-- Dashboard -->
  <rect x="500" y="120" width="240" height="170" rx="12" fill="#fff" opacity=".95"/>
  <rect x="520" y="140" width="120" height="14" rx="3" fill="#0046aa"/>
  <rect x="520" y="166" width="200" height="6" rx="2" fill="#cfdcef"/>
  <rect x="520" y="180" width="160" height="6" rx="2" fill="#cfdcef"/>
  <rect x="520" y="206" width="60" height="60" rx="6" fill="#e8f1ff"/>
  <rect x="590" y="206" width="60" height="60" rx="6" fill="#e8f1ff"/>
  <rect x="660" y="206" width="60" height="60" rx="6" fill="#e60012" opacity=".85"/>
  <text x="540" y="244" font-family="Manrope,Arial" font-size="22" font-weight="800" fill="#0046aa">24°</text>
  <text x="608" y="244" font-family="Manrope,Arial" font-size="22" font-weight="800" fill="#0046aa">68%</text>
  <text x="678" y="244" font-family="Manrope,Arial" font-size="14" font-weight="800" fill="#fff">SMART</text>
  <!-- Pipes -->
  <path d="M440 280 H 500 M440 320 H 500" stroke="#7fb6ff" stroke-width="6" fill="none" stroke-linecap="round" opacity=".7"/>
  <!-- Floor -->
  <rect x="0" y="380" width="800" height="120" fill="#000d22"/>
</svg>
