<svg xmlns="http://www.w3.org/2000/svg" viewBox="0 0 1600 700" preserveAspectRatio="xMidYMid slice">
  <defs>
    <linearGradient id="s2bg" x1="0" y1="0" x2="1" y2="0">
      <stop offset="0%" stop-color="#001f3a"/>
      <stop offset="100%" stop-color="#005f8c"/>
    </linearGradient>
  </defs>
  <rect width="1600" height="700" fill="url(#s2bg)"/>
  <!-- High-rise building silhouette -->
  <g opacity=".95">
    <rect x="60" y="120" width="180" height="540" fill="#0a3d59" stroke="#19577c"/>
    <rect x="260" y="60" width="220" height="600" fill="#0d4a6c" stroke="#1d6691"/>
    <rect x="500" y="180" width="160" height="480" fill="#0a3d59" stroke="#19577c"/>
    <!-- Windows -->
    <g fill="#7fcff5" opacity=".55">
      <rect x="80" y="140" width="30" height="30"/><rect x="120" y="140" width="30" height="30"/><rect x="160" y="140" width="30" height="30"/><rect x="200" y="140" width="30" height="30"/>
      <rect x="80" y="190" width="30" height="30"/><rect x="120" y="190" width="30" height="30"/><rect x="160" y="190" width="30" height="30"/><rect x="200" y="190" width="30" height="30"/>
      <rect x="80" y="240" width="30" height="30"/><rect x="120" y="240" width="30" height="30"/><rect x="160" y="240" width="30" height="30"/><rect x="200" y="240" width="30" height="30"/>
      <rect x="80" y="290" width="30" height="30"/><rect x="120" y="290" width="30" height="30"/><rect x="160" y="290" width="30" height="30"/><rect x="200" y="290" width="30" height="30"/>
      <rect x="80" y="340" width="30" height="30"/><rect x="120" y="340" width="30" height="30"/><rect x="160" y="340" width="30" height="30"/><rect x="200" y="340" width="30" height="30"/>
      <rect x="80" y="390" width="30" height="30"/><rect x="120" y="390" width="30" height="30"/><rect x="160" y="390" width="30" height="30"/><rect x="200" y="390" width="30" height="30"/>
      <rect x="280" y="80" width="35" height="35"/><rect x="330" y="80" width="35" height="35"/><rect x="380" y="80" width="35" height="35"/><rect x="430" y="80" width="35" height="35"/>
      <rect x="280" y="135" width="35" height="35"/><rect x="330" y="135" width="35" height="35"/><rect x="380" y="135" width="35" height="35"/><rect x="430" y="135" width="35" height="35"/>
      <rect x="280" y="190" width="35" height="35"/><rect x="330" y="190" width="35" height="35"/><rect x="380" y="190" width="35" height="35"/><rect x="430" y="190" width="35" height="35"/>
      <rect x="280" y="245" width="35" height="35"/><rect x="330" y="245" width="35" height="35"/><rect x="380" y="245" width="35" height="35"/><rect x="430" y="245" width="35" height="35"/>
      <rect x="280" y="300" width="35" height="35"/><rect x="330" y="300" width="35" height="35"/><rect x="380" y="300" width="35" height="35"/><rect x="430" y="300" width="35" height="35"/>
      <rect x="520" y="200" width="30" height="30"/><rect x="560" y="200" width="30" height="30"/><rect x="600" y="200" width="30" height="30"/>
      <rect x="520" y="250" width="30" height="30"/><rect x="560" y="250" width="30" height="30"/><rect x="600" y="250" width="30" height="30"/>
      <rect x="520" y="300" width="30" height="30"/><rect x="560" y="300" width="30" height="30"/><rect x="600" y="300" width="30" height="30"/>
    </g>
    <!-- Lit windows -->
    <g fill="#ffd76a" opacity=".95">
      <rect x="120" y="240" width="30" height="30"/>
      <rect x="200" y="340" width="30" height="30"/>
      <rect x="380" y="135" width="35" height="35"/>
      <rect x="330" y="245" width="35" height="35"/>
      <rect x="560" y="250" width="30" height="30"/>
    </g>
    <!-- Rooftop AC outdoor units -->
    <rect x="280" y="40" width="35" height="20" fill="#ffffff"/>
    <rect x="330" y="40" width="35" height="20" fill="#ffffff"/>
    <rect x="380" y="40" width="35" height="20" fill="#ffffff"/>
    <rect x="430" y="40" width="35" height="20" fill="#ffffff"/>
  </g>
  <!-- Worker/installer silhouette with crane -->
  <g stroke="#ffd76a" stroke-width="3" fill="none">
    <line x1="700" y1="660" x2="700" y2="80"/>
    <line x1="700" y1="80" x2="930" y2="80"/>
    <line x1="930" y1="80" x2="930" y2="180"/>
    <rect x="900" y="180" width="60" height="40" fill="#ffd76a" opacity=".8"/>
  </g>
  <!-- Right side text -->
  <text x="1020" y="240" font-family="Manrope,Arial" font-size="56" font-weight="800" fill="#ffffff">Thi công VRV/VRF</text>
  <text x="1020" y="310" font-family="Manrope,Arial" font-size="56" font-weight="800" fill="#ffffff">cho dự án lớn</text>
  <text x="1020" y="370" font-family="Inter,Arial" font-size="22" fill="#a8d6ed">Cao ốc · Khách sạn · Nhà máy · Tòa nhà thông minh</text>
  <!-- Stats row -->
  <g font-family="Manrope,Arial" fill="#ffffff">
    <text x="1020" y="470" font-size="44" font-weight="800">2.500+</text>
    <text x="1020" y="500" font-size="14" fill="#a8d6ed">Công trình bàn giao</text>
    <text x="1220" y="470" font-size="44" font-weight="800">15+</text>
    <text x="1220" y="500" font-size="14" fill="#a8d6ed">Năm kinh nghiệm</text>
    <text x="1380" y="470" font-size="44" font-weight="800">24/7</text>
    <text x="1380" y="500" font-size="14" fill="#a8d6ed">Hỗ trợ kỹ thuật</text>
  </g>
  <!-- Cyan accent line -->
  <rect x="1020" y="200" width="60" height="6" fill="#00a0e4"/>
</svg>
